<svg width="16" height="14" viewBox="0 0 16 14" fill="none" xmlns="http://www.w3.org/2000/svg">
<path d="M15.5 0.90625H0.5C0.37568 0.90625 0.256451 0.955636 0.168544 1.04354C0.080636 1.13145 0.03125 1.25068 0.03125 1.375V12C0.03125 12.2901 0.146484 12.5683 0.351602 12.7734C0.55672 12.9785 0.834919 13.0938 1.125 13.0938H14.875C15.1651 13.0938 15.4433 12.9785 15.6484 12.7734C15.8535 12.5683 15.9688 12.2901 15.9688 12V1.375C15.9688 1.25068 15.9194 1.13145 15.8315 1.04354C15.7435 0.955636 15.6243 0.90625 15.5 0.90625ZM14.2953 1.84375L8 7.61406L1.70469 1.84375H14.2953ZM14.875 12.1562H1.125C1.08356 12.1562 1.04382 12.1398 1.01451 12.1105C0.985212 12.0812 0.96875 12.0414 0.96875 12V2.44062L7.6875 8.59531C7.77391 8.67437 7.88679 8.71821 8.00391 8.71821C8.12103 8.71821 8.2339 8.67437 8.32031 8.59531L15.0312 2.44062V12C15.0312 12.0414 15.0148 12.0812 14.9855 12.1105C14.9562 12.1398 14.9164 12.1562 14.875 12.1562Z" fill="white"/>
</svg>
