<svg width="16" height="16" viewBox="0 0 16 16" fill="none" xmlns="http://www.w3.org/2000/svg">
<path d="M8 0.03125C6.42393 0.03125 4.88326 0.498609 3.5728 1.37423C2.26235 2.24984 1.24097 3.49439 0.637838 4.95049C0.0347026 6.40659 -0.123105 8.00884 0.184371 9.55463C0.491847 11.1004 1.2508 12.5203 2.36525 13.6348C3.4797 14.7492 4.89959 15.5082 6.44538 15.8156C7.99116 16.1231 9.59341 15.9653 11.0495 15.3622C12.5056 14.759 13.7502 13.7377 14.6258 12.4272C15.5014 11.1167 15.9688 9.57607 15.9688 8C15.9663 5.88732 15.1259 3.86188 13.632 2.36798C12.1381 0.87409 10.1127 0.0337311 8 0.03125ZM15.0156 7.53125H11.5852C11.4648 4.34609 10.1414 2.20078 9.20782 1.07266C10.7583 1.34565 12.1726 2.13001 13.2253 3.30062C14.2779 4.47122 14.9082 5.96063 15.0156 7.53125ZM8 14.8617C7.54868 14.4013 7.15061 13.8916 6.81328 13.3422C5.91605 11.8701 5.41342 10.1917 5.35391 8.46875H10.6461C10.5866 10.1917 10.084 11.8701 9.18672 13.3422C8.8494 13.8916 8.45132 14.4013 8 14.8617ZM5.35391 7.53125C5.41342 5.80834 5.91605 4.12986 6.81328 2.65781C7.15061 2.10839 7.54868 1.59867 8 1.13828C8.45132 1.59867 8.8494 2.10839 9.18672 2.65781C10.084 4.12986 10.5866 5.80834 10.6461 7.53125H5.35391ZM6.79219 1.07266C5.85469 2.20078 4.53516 4.34609 4.41485 7.53125H0.984379C1.09179 5.96063 1.7221 4.47122 2.77475 3.30062C3.8274 2.13001 5.24175 1.34565 6.79219 1.07266ZM0.984379 8.46875H4.41485C4.53516 11.6539 5.8586 13.7992 6.79219 14.9273C5.24175 14.6543 3.8274 13.87 2.77475 12.6994C1.7221 11.5288 1.09179 10.0394 0.984379 8.46875ZM9.20782 14.9273C10.1414 13.7992 11.4648 11.6539 11.5852 8.46875H15.0156C14.9082 10.0394 14.2779 11.5288 13.2253 12.6994C12.1726 13.87 10.7583 14.6543 9.20782 14.9273Z" fill="white"/>
</svg>
