<svg width="16" height="16" viewBox="0 0 16 16" fill="none" xmlns="http://www.w3.org/2000/svg">
<path d="M15.7883 2.00546C15.7321 1.96161 15.6667 1.93115 15.5969 1.9164C15.5272 1.90164 15.4551 1.90298 15.3859 1.9203L10.5547 3.12811L5.71094 0.706236C5.61078 0.656279 5.49605 0.643808 5.3875 0.67108L0.3875 1.92108C0.286003 1.94617 0.195809 2.00448 0.131258 2.08672C0.0667068 2.16897 0.0315051 2.27043 0.03125 2.37499V13.625C0.0312459 13.6963 0.0474932 13.7666 0.0787562 13.8306C0.110019 13.8947 0.155475 13.9508 0.211667 13.9946C0.267859 14.0384 0.333307 14.0689 0.403035 14.0836C0.472763 14.0984 0.544935 14.097 0.614062 14.0797L5.44531 12.8719L10.2891 15.2937C10.3892 15.3437 10.5039 15.3562 10.6125 15.3289L15.6125 14.0789C15.714 14.0538 15.8042 13.9955 15.8687 13.9133C15.9333 13.831 15.9685 13.7295 15.9688 13.625V2.37499C15.9687 2.30373 15.9525 2.23341 15.9212 2.16937C15.8899 2.10534 15.8445 2.04928 15.7883 2.00546ZM5.96875 1.88358L10.0312 3.91483V14.1164L5.96875 12.0851V1.88358ZM0.96875 2.74295L5.03125 1.72733V12.0094L0.96875 13.025V2.74295ZM15.0312 13.2594L10.9688 14.275V3.99061L15.0312 2.97499V13.2594Z" fill="white"/>
</svg>
