<svg width="16" height="16" viewBox="0 0 16 16" fill="none" xmlns="http://www.w3.org/2000/svg">
<path d="M15.3117 10.5235L11.6211 8.86955C11.4539 8.7979 11.2714 8.76909 11.0903 8.78573C10.9091 8.80237 10.735 8.86394 10.5836 8.96486C10.5682 8.97472 10.5536 8.98569 10.5399 8.99767L8.61095 10.6383C8.59093 10.6492 8.56865 10.6553 8.54587 10.6561C8.52309 10.6569 8.50044 10.6524 8.4797 10.643C7.23985 10.0445 5.95548 8.76798 5.3547 7.54533C5.34469 7.5249 5.33949 7.50245 5.33949 7.4797C5.33949 7.45695 5.34469 7.43451 5.3547 7.41408L7.00079 5.46095C7.0126 5.4465 7.02356 5.43137 7.0336 5.41564C7.13312 5.26369 7.19324 5.08935 7.20851 4.90835C7.22379 4.72735 7.19375 4.5454 7.1211 4.37892L5.47892 0.694546C5.38566 0.477053 5.22437 0.295672 5.01927 0.177628C4.81418 0.0595827 4.57632 0.011241 4.34142 0.039858C3.3205 0.174074 2.38338 0.675435 1.70518 1.45025C1.02699 2.22506 0.654119 3.22031 0.656259 4.25001C0.656259 10.3672 5.63282 15.3438 11.75 15.3438C12.7797 15.3457 13.7748 14.9728 14.5496 14.2946C15.3244 13.6165 15.8258 12.6795 15.9602 11.6586C15.9887 11.4248 15.941 11.188 15.8242 10.9835C15.7074 10.779 15.5276 10.6176 15.3117 10.5235ZM11.75 14.4063C6.15001 14.4063 1.59376 9.85001 1.59376 4.25001C1.59115 3.4484 1.88048 2.67325 2.4077 2.0694C2.93492 1.46555 3.66396 1.0743 4.4586 0.968764H4.47657C4.50805 0.969352 4.53863 0.979438 4.56428 0.997701C4.58993 1.01596 4.60946 1.04155 4.62032 1.07111L6.26876 4.75158C6.27816 4.77204 6.28303 4.79429 6.28303 4.81681C6.28303 4.83933 6.27816 4.86158 6.26876 4.88205L4.61954 6.83986C4.60724 6.85383 4.59601 6.86872 4.58595 6.88439C4.48275 7.04193 4.42198 7.22346 4.40952 7.41138C4.39707 7.5993 4.43335 7.78726 4.51485 7.95705C5.20782 9.3758 6.63751 10.7945 8.07188 11.4875C8.24266 11.5686 8.43153 11.604 8.62007 11.5903C8.80862 11.5766 8.99039 11.5143 9.14767 11.4094C9.16251 11.3992 9.17735 11.3883 9.19141 11.3766L11.1195 9.73595C11.1386 9.72572 11.1596 9.71972 11.1812 9.71838C11.2028 9.71703 11.2244 9.72036 11.2445 9.72814L14.9359 11.382C14.9661 11.3949 14.9915 11.4169 15.0084 11.4449C15.0254 11.473 15.0331 11.5056 15.0305 11.5383C14.9255 12.3333 14.5346 13.0629 13.9309 13.5907C13.3272 14.1185 12.5519 14.4084 11.75 14.4063Z" fill="white"/>
</svg>
