<svg width="20" height="20" viewBox="0 0 20 20" fill="none" xmlns="http://www.w3.org/2000/svg">
<path d="M19.3975 18.6025L14.5806 13.7856C15.9542 12.206 16.6608 10.1547 16.5515 8.06423C16.4422 5.97374 15.5255 4.00736 13.9946 2.57959C12.4638 1.15182 10.4384 0.374197 8.34534 0.41065C6.25232 0.447103 4.25521 1.29478 2.775 2.775C1.29478 4.25521 0.447103 6.25232 0.41065 8.34534C0.374197 10.4384 1.15182 12.4638 2.57959 13.9946C4.00736 15.5255 5.97374 16.4422 8.06423 16.5515C10.1547 16.6608 12.206 15.9542 13.7856 14.5806L18.6025 19.3975C18.7091 19.4969 18.8502 19.551 18.9959 19.5484C19.1416 19.5458 19.2807 19.4868 19.3837 19.3837C19.4868 19.2807 19.5458 19.1416 19.5484 18.9959C19.551 18.8502 19.4969 18.7091 19.3975 18.6025ZM1.5625 8.5C1.5625 7.1279 1.96938 5.7866 2.73168 4.64574C3.49399 3.50487 4.57748 2.61567 5.84514 2.09059C7.1128 1.56551 8.5077 1.42812 9.85344 1.69581C11.1992 1.96349 12.4353 2.62422 13.4056 3.59445C14.3758 4.56468 15.0365 5.80082 15.3042 7.14656C15.5719 8.49231 15.4345 9.88721 14.9094 11.1549C14.3843 12.4225 13.4951 13.506 12.3543 14.2683C11.2134 15.0306 9.87211 15.4375 8.5 15.4375C6.66075 15.4353 4.89747 14.7036 3.59692 13.4031C2.29637 12.1025 1.56474 10.3393 1.5625 8.5Z" fill="#101010"/>
</svg>
